<?xml version="1.0" encoding="UTF-8"?>
<svg width="512px" height="512px" viewBox="0 0 512 512" version="1.1" xmlns="http://www.w3.org/2000/svg" xmlns:xlink="http://www.w3.org/1999/xlink">
    <title>security</title>
    <g id="Page-1" stroke="none" stroke-width="1" fill="none" fill-rule="evenodd">
        <g id="security" fill="#FFFFFF" fill-rule="nonzero">
            <path d="M34.1333333,102.4 C15.3088,102.4 0,87.0912 0,68.2666667 C0,49.4421333 15.3088,34.1333333 34.1333333,34.1333333 C52.9578667,34.1333333 68.2666667,49.4421333 68.2666667,68.2666667 C68.2666667,87.0912 52.9578667,102.4 34.1333333,102.4 Z M34.1333333,51.2 C24.7210667,51.2 17.0666667,58.8544 17.0666667,68.2666667 C17.0666667,77.6789333 24.7210667,85.3333333 34.1333333,85.3333333 C43.5456,85.3333333 51.2,77.6789333 51.2,68.2666667 C51.2,58.8544 43.5456,51.2 34.1333333,51.2 Z" id="Shape"></path>
            <path d="M162.133333,68.2666667 C143.3088,68.2666667 128,52.9578667 128,34.1333333 C128,15.3088 143.3088,0 162.133333,0 C180.957867,0 196.266667,15.3088 196.266667,34.1333333 C196.266667,52.9578667 180.957867,68.2666667 162.133333,68.2666667 Z M162.133333,17.0666667 C152.721067,17.0666667 145.066667,24.7210667 145.066667,34.1333333 C145.066667,43.5456 152.721067,51.2 162.133333,51.2 C171.5456,51.2 179.2,43.5456 179.2,34.1333333 C179.2,24.7210667 171.5456,17.0666667 162.133333,17.0666667 Z" id="Shape"></path>
            <path d="M477.866667,179.2 C459.042133,179.2 443.733333,163.8912 443.733333,145.066667 C443.733333,126.242133 459.042133,110.933333 477.866667,110.933333 C496.6912,110.933333 512,126.242133 512,145.066667 C512,163.8912 496.6912,179.2 477.866667,179.2 Z M477.866667,128 C468.4544,128 460.8,135.6544 460.8,145.066667 C460.8,154.478933 468.4544,162.133333 477.866667,162.133333 C487.278933,162.133333 494.933333,154.478933 494.933333,145.066667 C494.933333,135.6544 487.278933,128 477.866667,128 Z" id="Shape"></path>
            <path d="M366.933333,512 C348.1088,512 332.8,496.6912 332.8,477.866667 C332.8,459.042133 348.1088,443.733333 366.933333,443.733333 C385.757867,443.733333 401.066667,459.042133 401.066667,477.866667 C401.066667,496.6912 385.757867,512 366.933333,512 Z M366.933333,460.8 C357.521067,460.8 349.866667,468.4544 349.866667,477.866667 C349.866667,487.278933 357.521067,494.933333 366.933333,494.933333 C376.3456,494.933333 384,487.278933 384,477.866667 C384,468.4544 376.3456,460.8 366.933333,460.8 Z" id="Shape"></path>
            <path d="M477.866667,418.133333 C459.042133,418.133333 443.733333,402.824533 443.733333,384 C443.733333,365.175467 459.042133,349.866667 477.866667,349.866667 C496.6912,349.866667 512,365.175467 512,384 C512,402.824533 496.6912,418.133333 477.866667,418.133333 Z M477.866667,366.933333 C468.4544,366.933333 460.8,374.587733 460.8,384 C460.8,393.412267 468.4544,401.066667 477.866667,401.066667 C487.278933,401.066667 494.933333,393.412267 494.933333,384 C494.933333,374.587733 487.278933,366.933333 477.866667,366.933333 Z" id="Shape"></path>
            <path d="M110.933333,486.4 C92.1088,486.4 76.8,471.0912 76.8,452.266667 C76.8,433.442133 92.1088,418.133333 110.933333,418.133333 C129.757867,418.133333 145.066667,433.442133 145.066667,452.266667 C145.066667,471.0912 129.757867,486.4 110.933333,486.4 Z M110.933333,435.2 C101.521067,435.2 93.8666667,442.8544 93.8666667,452.266667 C93.8666667,461.678933 101.521067,469.333333 110.933333,469.333333 C120.3456,469.333333 128,461.678933 128,452.266667 C128,442.8544 120.3456,435.2 110.933333,435.2 Z" id="Shape"></path>
            <path d="M34.1333333,384 C15.3088,384 0,368.6912 0,349.866667 C0,331.042133 15.3088,315.733333 34.1333333,315.733333 C52.9578667,315.733333 68.2666667,331.042133 68.2666667,349.866667 C68.2666667,368.6912 52.9578667,384 34.1333333,384 Z M34.1333333,332.8 C24.7210667,332.8 17.0666667,340.4544 17.0666667,349.866667 C17.0666667,359.278933 24.7210667,366.933333 34.1333333,366.933333 C43.5456,366.933333 51.2,359.278933 51.2,349.866667 C51.2,340.4544 43.5456,332.8 34.1333333,332.8 Z" id="Shape"></path>
            <path d="M392.533333,68.2666667 C373.7088,68.2666667 358.4,52.9578667 358.4,34.1333333 C358.4,15.3088 373.7088,0 392.533333,0 C411.357867,0 426.666667,15.3088 426.666667,34.1333333 C426.666667,52.9578667 411.357867,68.2666667 392.533333,68.2666667 Z M392.533333,17.0666667 C383.121067,17.0666667 375.466667,24.7210667 375.466667,34.1333333 C375.466667,43.5456 383.121067,51.2 392.533333,51.2 C401.9456,51.2 409.6,43.5456 409.6,34.1333333 C409.6,24.7210667 401.9456,17.0666667 392.533333,17.0666667 Z" id="Shape"></path>
            <path d="M256,409.6 C171.306667,409.6 102.4,340.693333 102.4,256 C102.4,171.306667 171.306667,102.4 256,102.4 C340.693333,102.4 409.6,171.306667 409.6,256 C409.6,340.693333 340.693333,409.6 256,409.6 Z M256,119.466667 C180.7104,119.466667 119.466667,180.718933 119.466667,256 C119.466667,331.281067 180.7104,392.533333 256,392.533333 C331.281067,392.533333 392.533333,331.281067 392.533333,256 C392.533333,180.718933 331.281067,119.466667 256,119.466667 Z" id="Shape"></path>
            <path d="M145.066667,170.666667 L102.4,170.666667 C60.0490667,170.666667 25.6,136.209067 25.6,93.8666667 C25.6,89.1562667 29.4229333,85.3333333 34.1333333,85.3333333 C38.8437333,85.3333333 42.6666667,89.1562667 42.6666667,93.8666667 C42.6666667,126.805333 69.4613333,153.6 102.4,153.6 L145.066667,153.6 C149.777067,153.6 153.6,157.422933 153.6,162.133333 C153.6,166.843733 149.777067,170.666667 145.066667,170.666667 Z" id="Path"></path>
            <path d="M204.8,460.8 L136.533333,460.8 C131.822933,460.8 128,456.977067 128,452.266667 C128,447.556267 131.822933,443.733333 136.533333,443.733333 L204.8,443.733333 C228.3264,443.733333 247.466667,424.593067 247.466667,401.066667 C247.466667,396.356267 251.2896,392.533333 256,392.533333 C260.7104,392.533333 264.533333,396.356267 264.533333,401.066667 C264.533333,434.005333 237.738667,460.8 204.8,460.8 Z" id="Path"></path>
            <path d="M145.066667,358.4 L59.7333333,358.4 C55.0229333,358.4 51.2,354.577067 51.2,349.866667 C51.2,345.156267 55.0229333,341.333333 59.7333333,341.333333 L145.066667,341.333333 C149.777067,341.333333 153.6,345.156267 153.6,349.866667 C153.6,354.577067 149.777067,358.4 145.066667,358.4 Z" id="Path"></path>
            <path d="M256,68.2666667 C251.2896,68.2666667 247.466667,64.4437333 247.466667,59.7333333 C247.466667,50.3210667 239.812267,42.6666667 230.4,42.6666667 L187.733333,42.6666667 C183.022933,42.6666667 179.2,38.8437333 179.2,34.1333333 C179.2,29.4229333 183.022933,25.6 187.733333,25.6 L230.4,25.6 C249.224533,25.6 264.533333,40.9088 264.533333,59.7333333 C264.533333,64.4437333 260.7104,68.2666667 256,68.2666667 Z" id="Path"></path>
            <path d="M256,119.466667 C251.2896,119.466667 247.466667,115.643733 247.466667,110.933333 L247.466667,59.7333333 C247.466667,55.0229333 251.2896,51.2 256,51.2 C260.7104,51.2 264.533333,55.0229333 264.533333,59.7333333 L264.533333,110.933333 C264.533333,115.643733 260.7104,119.466667 256,119.466667 Z" id="Path"></path>
            <path d="M324.266667,136.533333 C319.556267,136.533333 315.733333,132.7104 315.733333,128 C315.733333,109.175467 331.042133,93.8666667 349.866667,93.8666667 L375.466667,93.8666667 C380.168533,93.8666667 384,90.0352 384,85.3333333 L384,59.7333333 C384,55.0229333 387.822933,51.2 392.533333,51.2 C397.243733,51.2 401.066667,55.0229333 401.066667,59.7333333 L401.066667,85.3333333 C401.066667,99.4474667 389.5808,110.933333 375.466667,110.933333 L349.866667,110.933333 C340.4544,110.933333 332.8,118.587733 332.8,128 C332.8,132.7104 328.977067,136.533333 324.266667,136.533333 Z" id="Path"></path>
            <path d="M401.066667,264.533333 C396.356267,264.533333 392.533333,260.7104 392.533333,256 C392.533333,237.175467 407.842133,221.866667 426.666667,221.866667 L460.8,221.866667 C465.501867,221.866667 469.333333,218.0352 469.333333,213.333333 L469.333333,170.666667 C469.333333,165.956267 473.156267,162.133333 477.866667,162.133333 C482.577067,162.133333 486.4,165.956267 486.4,170.666667 L486.4,213.333333 C486.4,227.447467 474.914133,238.933333 460.8,238.933333 L426.666667,238.933333 C417.2544,238.933333 409.6,246.587733 409.6,256 C409.6,260.7104 405.777067,264.533333 401.066667,264.533333 Z" id="Path"></path>
            <path d="M477.866667,366.933333 C473.156267,366.933333 469.333333,363.1104 469.333333,358.4 L469.333333,332.8 C469.333333,328.098133 465.501867,324.266667 460.8,324.266667 L418.133333,324.266667 C400.392533,324.266667 388.48,310.5536 388.48,290.133333 C388.48,285.422933 392.302933,281.6 397.013333,281.6 C401.723733,281.6 405.546667,285.422933 405.546667,290.133333 C405.546667,295.2704 406.775467,307.2 418.133333,307.2 L460.8,307.2 C474.914133,307.2 486.4,318.685867 486.4,332.8 L486.4,358.4 C486.4,363.1104 482.577067,366.933333 477.866667,366.933333 Z" id="Path"></path>
            <path d="M366.933333,435.2 C362.222933,435.2 358.4,431.377067 358.4,426.666667 C358.4,421.9648 354.568533,418.133333 349.866667,418.133333 C331.042133,418.133333 315.733333,402.824533 315.733333,384 C315.733333,379.2896 319.556267,375.466667 324.266667,375.466667 C328.977067,375.466667 332.8,379.2896 332.8,384 C332.8,393.412267 340.4544,401.066667 349.866667,401.066667 C363.9808,401.066667 375.466667,412.552533 375.466667,426.666667 C375.466667,431.377067 371.643733,435.2 366.933333,435.2 Z" id="Path"></path>
            <path d="M366.933333,460.8 C362.222933,460.8 358.4,456.977067 358.4,452.266667 L358.4,426.666667 C358.4,421.956267 362.222933,418.133333 366.933333,418.133333 C371.643733,418.133333 375.466667,421.956267 375.466667,426.666667 L375.466667,452.266667 C375.466667,456.977067 371.643733,460.8 366.933333,460.8 Z" id="Path"></path>
            <path d="M324.266667,349.866667 L187.733333,349.866667 C183.022933,349.866667 179.2,346.043733 179.2,341.333333 L179.2,238.933333 C179.2,234.222933 183.022933,230.4 187.733333,230.4 L324.266667,230.4 C328.977067,230.4 332.8,234.222933 332.8,238.933333 L332.8,341.333333 C332.8,346.043733 328.977067,349.866667 324.266667,349.866667 Z M196.266667,332.8 L315.733333,332.8 L315.733333,247.466667 L196.266667,247.466667 L196.266667,332.8 Z" id="Shape"></path>
            <path d="M281.6,315.733333 L230.4,315.733333 C225.6896,315.733333 221.866667,311.9104 221.866667,307.2 L221.866667,273.066667 C221.866667,268.356267 225.6896,264.533333 230.4,264.533333 L281.6,264.533333 C286.3104,264.533333 290.133333,268.356267 290.133333,273.066667 L290.133333,307.2 C290.133333,311.9104 286.3104,315.733333 281.6,315.733333 Z M238.933333,298.666667 L273.066667,298.666667 L273.066667,281.6 L238.933333,281.6 L238.933333,298.666667 Z" id="Shape"></path>
            <path d="M307.2,247.466667 L204.8,247.466667 C200.0896,247.466667 196.266667,243.643733 196.266667,238.933333 L196.266667,204.8 C196.266667,171.861333 223.061333,145.066667 256,145.066667 C288.938667,145.066667 315.733333,171.861333 315.733333,204.8 L315.733333,238.933333 C315.733333,243.643733 311.9104,247.466667 307.2,247.466667 Z M213.333333,230.4 L298.666667,230.4 L298.666667,204.8 C298.666667,181.2736 279.5264,162.133333 256,162.133333 C232.4736,162.133333 213.333333,181.2736 213.333333,204.8 L213.333333,230.4 Z" id="Shape"></path>
            <path d="M273.066667,247.466667 L238.933333,247.466667 C234.222933,247.466667 230.4,243.643733 230.4,238.933333 L230.4,204.8 C230.4,190.685867 241.885867,179.2 256,179.2 C270.114133,179.2 281.6,190.685867 281.6,204.8 L281.6,238.933333 C281.6,243.643733 277.777067,247.466667 273.066667,247.466667 Z M247.466667,230.4 L264.533333,230.4 L264.533333,204.8 C264.533333,200.098133 260.7104,196.266667 256,196.266667 C251.2896,196.266667 247.466667,200.098133 247.466667,204.8 L247.466667,230.4 Z" id="Shape"></path>
        </g>
    </g>
</svg>